<?xml version="1.0" standalone="no"?>
<!DOCTYPE svg PUBLIC "-//W3C//DTD SVG 20010904//EN"
 "http://www.w3.org/TR/2001/REC-SVG-20010904/DTD/svg10.dtd">
<svg version="1.0" xmlns="http://www.w3.org/2000/svg"
 width="512.000000pt" height="512.000000pt" viewBox="0 0 512.000000 512.000000"
 preserveAspectRatio="xMidYMid meet">

<g transform="translate(0.000000,512.000000) scale(0.100000,-0.100000)"
fill="#000000" stroke="none">
<path d="M564 4791 c-47 -12 -133 -62 -160 -94 -14 -17 -37 -53 -52 -81 -22
-43 -26 -64 -26 -136 -1 -78 2 -90 33 -148 38 -70 69 -100 145 -140 l51 -27
1685 0 1685 0 52 27 c67 36 116 85 150 151 23 45 27 64 27 137 0 72 -4 93 -26
136 -39 75 -70 107 -140 145 l-63 34 -1665 2 c-916 0 -1679 -2 -1696 -6z"/>
<path d="M564 3191 c-47 -12 -133 -62 -160 -94 -14 -17 -37 -53 -52 -81 -22
-43 -26 -64 -26 -136 -1 -78 2 -90 33 -148 38 -70 69 -100 145 -140 l51 -27
1685 0 1685 0 52 27 c67 36 116 85 150 151 23 45 27 64 27 137 0 72 -4 93 -26
136 -39 75 -70 107 -140 145 l-63 34 -1665 2 c-916 0 -1679 -2 -1696 -6z"/>
<path d="M3764 2231 c-49 -12 -134 -63 -160 -94 -14 -17 -37 -53 -52 -81 -26
-50 -27 -57 -30 -253 l-4 -201 -201 -4 c-196 -3 -203 -4 -253 -30 -76 -40
-107 -70 -145 -140 -31 -58 -34 -70 -34 -148 0 -78 3 -90 34 -148 38 -70 69
-100 145 -140 50 -26 57 -27 253 -30 l201 -4 4 -201 c3 -196 4 -203 30 -253
40 -76 70 -107 140 -145 58 -31 70 -34 148 -33 73 0 93 4 137 27 66 34 116 83
150 150 27 51 28 57 31 254 l4 201 201 4 c197 3 203 4 254 31 67 34 116 84
150 150 23 44 27 64 27 137 1 78 -2 90 -33 148 -38 70 -69 100 -145 140 -50
26 -57 27 -253 30 l-201 4 -4 201 -3 202 -34 63 c-38 70 -70 101 -143 138 -54
27 -158 40 -214 25z"/>
<path d="M564 1591 c-48 -12 -133 -62 -160 -94 -14 -17 -37 -53 -52 -81 -22
-43 -26 -64 -26 -136 -1 -78 2 -90 33 -148 38 -70 69 -100 145 -140 l51 -27
885 0 885 0 52 27 c67 36 116 85 150 151 23 44 27 64 27 137 1 78 -2 90 -33
148 -38 70 -69 100 -145 140 l-51 27 -865 2 c-476 0 -879 -2 -896 -6z"/>
</g>
</svg>
