<?xml version="1.0" standalone="no"?>
<!DOCTYPE svg PUBLIC "-//W3C//DTD SVG 20010904//EN"
 "http://www.w3.org/TR/2001/REC-SVG-20010904/DTD/svg10.dtd">
<svg version="1.0" xmlns="http://www.w3.org/2000/svg"
 width="512.000000pt" height="512.000000pt" viewBox="0 0 512.000000 512.000000"
 preserveAspectRatio="xMidYMid meet">

<g transform="translate(0.000000,512.000000) scale(0.100000,-0.100000)"
fill="#000000" stroke="none">
<path d="M0 4610 l0 -340 2050 0 2050 0 0 340 0 340 -2050 0 -2050 0 0 -340z"/>
<path d="M0 3240 l0 -340 2050 0 2050 0 0 340 0 340 -2050 0 -2050 0 0 -340z"/>
<path d="M0 1880 l0 -340 1365 0 1365 0 0 340 0 340 -1365 0 -1365 0 0 -340z"/>
<path d="M3410 1194 c0 -854 2 -1015 14 -1012 14 3 1696 1011 1693 1014 -12
11 -1691 1014 -1698 1014 -5 0 -9 -403 -9 -1016z"/>
</g>
</svg>
